<svg xmlns="http://www.w3.org/2000/svg" xmlns:xlink="http://www.w3.org/1999/xlink" contentStyleType="text/css" data-diagram-type="ACTIVITY" height="450px" preserveAspectRatio="none" style="width:1452px;height:450px;background:#FFFFFF;" version="1.1" viewBox="0 0 1452 450" width="1452px" zoomAndPan="magnify"><defs/><g><ellipse cx="615.8063" cy="20" fill="#222222" rx="10" ry="10" style="stroke:#222222;stroke-width:1;"/><polygon fill="#F1F1F1" points="544.3068,50,687.3058,50,699.3058,62,687.3058,74,544.3068,74,532.3068,62,544.3068,50" style="stroke:#181818;stroke-width:0.5;"/><text fill="#000000" font-family="sans-serif" font-size="11" lengthAdjust="spacing" textLength="142.999" x="544.3068" y="65.8081">&#31471;&#26411;&#12399;&#25509;&#32154;&#12373;&#12428;&#12390;&#12356;&#12414;&#12377;&#12363;&#65311;</text><text fill="#000000" font-family="sans-serif" font-size="11" lengthAdjust="spacing" textLength="16.8867" x="515.4201" y="59.4058">NO</text><text fill="#000000" font-family="sans-serif" font-size="11" lengthAdjust="spacing" textLength="20.6519" x="699.3058" y="59.4058">YES</text><polygon fill="#F1F1F1" points="32,109.8047,141.9992,109.8047,153.9992,121.8047,141.9992,133.8047,32,133.8047,20,121.8047,32,109.8047" style="stroke:#181818;stroke-width:0.5;"/><text fill="#000000" font-family="sans-serif" font-size="11" lengthAdjust="spacing" textLength="20.6519" x="90.9996" y="144.0151">YES</text><text fill="#000000" font-family="sans-serif" font-size="11" lengthAdjust="spacing" textLength="109.9992" x="32" y="125.6128">&#30058;&#21495;&#12399;&#20104;&#32004;&#28168;&#12391;&#12377;&#12363;&#65311;</text><rect fill="#F1F1F1" height="33.9688" rx="12.5" ry="12.5" style="stroke:#181818;stroke-width:0.5;" width="72.9863" x="50.5065" y="166.6094"/><text fill="#000000" font-family="sans-serif" font-size="12" lengthAdjust="spacing" textLength="52.9863" x="60.5065" y="187.748">reserved</text><polygon fill="#F1F1F1" points="192.886,109,346.8849,109,358.8849,121.8047,346.8849,134.6094,192.886,134.6094,180.886,121.8047,192.886,109" style="stroke:#181818;stroke-width:0.5;"/><text fill="#000000" font-family="sans-serif" font-size="11" lengthAdjust="spacing" textLength="20.6519" x="273.8854" y="144.8198">YES</text><text fill="#000000" font-family="sans-serif" font-size="11" lengthAdjust="spacing" textLength="131.9991" x="192.886" y="119.2104">&#26082;&#12395;&#20351;&#12431;&#12428;&#12394;&#12367;&#12394;&#12387;&#12383;&#31471;&#26411;</text><text fill="#000000" font-family="sans-serif" font-size="11" lengthAdjust="spacing" textLength="153.9989" x="192.886" y="132.0151">&#12354;&#12427;&#12356;&#12399;&#19968;&#26178;&#30340;&#12394;&#20999;&#26029;&#12391;&#12377;&#12363;&#65311;</text><text fill="#000000" font-family="sans-serif" font-size="11" lengthAdjust="spacing" textLength="16.8867" x="163.9992" y="119.2104">NO</text><text fill="#000000" font-family="sans-serif" font-size="11" lengthAdjust="spacing" textLength="16.8867" x="358.8849" y="119.2104">NO</text><rect fill="#F1F1F1" height="33.9688" rx="12.5" ry="12.5" style="stroke:#181818;stroke-width:0.5;" width="64.0684" x="237.8512" y="167.4141"/><text fill="#000000" font-family="sans-serif" font-size="12" lengthAdjust="spacing" textLength="44.0684" x="247.8512" y="188.5527">unused</text><rect fill="#F1F1F1" height="33.9688" rx="12.5" ry="12.5" style="stroke:#181818;stroke-width:0.5;" width="104.0006" x="378.8849" y="163.207"/><text fill="#000000" font-family="sans-serif" font-size="12" lengthAdjust="spacing" textLength="84.0006" x="388.8849" y="184.3457">&#65288;&#35352;&#36617;&#12375;&#12394;&#12356;&#65289;</text><polygon fill="#F1F1F1" points="948.1704,84,1102.1693,84,1114.1693,96,1102.1693,108,948.1704,108,936.1704,96,948.1704,84" style="stroke:#181818;stroke-width:0.5;"/><text fill="#000000" font-family="sans-serif" font-size="11" lengthAdjust="spacing" textLength="153.9989" x="948.1704" y="99.8081">&#38651;&#35441;&#12398;&#12383;&#12417;&#12384;&#12369;&#12398;&#31471;&#26411;&#12391;&#12377;&#12363;&#65311;</text><text fill="#000000" font-family="sans-serif" font-size="11" lengthAdjust="spacing" textLength="20.6519" x="915.5186" y="93.4058">YES</text><text fill="#000000" font-family="sans-serif" font-size="11" lengthAdjust="spacing" textLength="16.8867" x="1114.1693" y="93.4058">NO</text><polygon fill="#F1F1F1" points="713.2884,118,801.2878,118,813.2878,130,801.2878,142,713.2884,142,701.2884,130,713.2884,118" style="stroke:#181818;stroke-width:0.5;"/><text fill="#000000" font-family="sans-serif" font-size="11" lengthAdjust="spacing" textLength="87.9994" x="713.2884" y="133.8081">&#25658;&#24111;&#38651;&#35441;&#12391;&#12377;&#12363;&#65311;</text><text fill="#000000" font-family="sans-serif" font-size="11" lengthAdjust="spacing" textLength="20.6519" x="680.6365" y="127.4058">YES</text><text fill="#000000" font-family="sans-serif" font-size="11" lengthAdjust="spacing" textLength="16.8867" x="813.2878" y="127.4058">NO</text><polygon fill="#F1F1F1" points="561.1287,152,638.1282,152,650.1282,164,638.1282,176,561.1287,176,549.1287,164,561.1287,152" style="stroke:#181818;stroke-width:0.5;"/><text fill="#000000" font-family="sans-serif" font-size="11" lengthAdjust="spacing" textLength="76.9995" x="561.1287" y="167.8081">&#12473;&#12510;&#12507;&#12391;&#12377;&#12363;&#65311;</text><text fill="#000000" font-family="sans-serif" font-size="11" lengthAdjust="spacing" textLength="20.6519" x="528.4768" y="161.4058">YES</text><text fill="#000000" font-family="sans-serif" font-size="11" lengthAdjust="spacing" textLength="16.8867" x="650.1282" y="161.4058">NO</text><rect fill="#F1F1F1" height="33.9688" rx="12.5" ry="12.5" style="stroke:#181818;stroke-width:0.5;" width="92.4863" x="492.8855" y="186"/><text fill="#000000" font-family="sans-serif" font-size="12" lengthAdjust="spacing" textLength="72.4863" x="502.8855" y="207.1387">smartphone</text><rect fill="#F1F1F1" height="33.9688" rx="12.5" ry="12.5" style="stroke:#181818;stroke-width:0.5;" width="78.2012" x="621.0276" y="186"/><text fill="#000000" font-family="sans-serif" font-size="12" lengthAdjust="spacing" textLength="58.2012" x="631.0276" y="207.1387">cellphone</text><polygon fill="#F1F1F1" points="741.2287,177,840.2281,177,852.2281,189,840.2281,201,741.2287,201,729.2287,189,741.2287,177" style="stroke:#181818;stroke-width:0.5;"/><text fill="#000000" font-family="sans-serif" font-size="11" lengthAdjust="spacing" textLength="20.6519" x="794.7284" y="211.2104">YES</text><text fill="#000000" font-family="sans-serif" font-size="11" lengthAdjust="spacing" textLength="98.9993" x="741.2287" y="192.8081">&#12480;&#12452;&#12516;&#12523;&#24335;&#12391;&#12377;&#12363;&#65311;</text><rect fill="#F1F1F1" height="33.9688" rx="12.5" ry="12.5" style="stroke:#181818;stroke-width:0.5;" width="79.1914" x="751.1327" y="233.8047"/><text fill="#000000" font-family="sans-serif" font-size="12" lengthAdjust="spacing" textLength="59.1914" x="761.1327" y="254.9434">dialphone</text><polygon fill="#F1F1F1" points="901.1148,177,1011.114,177,1023.114,189,1011.114,201,901.1148,201,889.1148,189,901.1148,177" style="stroke:#181818;stroke-width:0.5;"/><text fill="#000000" font-family="sans-serif" font-size="11" lengthAdjust="spacing" textLength="20.6519" x="960.1144" y="211.2104">YES</text><text fill="#000000" font-family="sans-serif" font-size="11" lengthAdjust="spacing" textLength="109.9992" x="901.1148" y="192.8081">&#25276;&#12375;&#12508;&#12479;&#12531;&#24335;&#12391;&#12377;&#12363;&#65311;</text><text fill="#000000" font-family="sans-serif" font-size="11" lengthAdjust="spacing" textLength="16.8867" x="872.2281" y="186.4058">NO</text><text fill="#000000" font-family="sans-serif" font-size="11" lengthAdjust="spacing" textLength="16.8867" x="1023.114" y="186.4058">NO</text><rect fill="#F1F1F1" height="33.9688" rx="12.5" ry="12.5" style="stroke:#181818;stroke-width:0.5;" width="86.6328" x="912.798" y="233.8047"/><text fill="#000000" font-family="sans-serif" font-size="12" lengthAdjust="spacing" textLength="66.6328" x="922.798" y="254.9434">pushphone</text><rect fill="#F1F1F1" height="33.9688" rx="12.5" ry="12.5" style="stroke:#181818;stroke-width:0.5;" width="57.5527" x="1043.114" y="230.4023"/><text fill="#000000" font-family="sans-serif" font-size="12" lengthAdjust="spacing" textLength="37.5527" x="1053.114" y="251.541">phone</text><polygon fill="#F1F1F1" points="1142.6667,143,1241.6661,143,1253.6661,155,1241.6661,167,1142.6667,167,1130.6667,155,1142.6667,143" style="stroke:#181818;stroke-width:0.5;"/><text fill="#000000" font-family="sans-serif" font-size="11" lengthAdjust="spacing" textLength="20.6519" x="1196.1664" y="177.2104">YES</text><text fill="#000000" font-family="sans-serif" font-size="11" lengthAdjust="spacing" textLength="98.9993" x="1142.6667" y="158.8081">&#12514;&#12487;&#12512;&#31471;&#26411;&#12391;&#12377;&#12363;&#65311;</text><rect fill="#F1F1F1" height="33.9688" rx="12.5" ry="12.5" style="stroke:#181818;stroke-width:0.5;" width="65.7207" x="1159.3061" y="199.8047"/><text fill="#000000" font-family="sans-serif" font-size="12" lengthAdjust="spacing" textLength="45.7207" x="1169.3061" y="220.9434">modem</text><polygon fill="#F1F1F1" points="1302.5528,143,1393.4366,143,1405.4366,155,1393.4366,167,1302.5528,167,1290.5528,155,1302.5528,143" style="stroke:#181818;stroke-width:0.5;"/><text fill="#000000" font-family="sans-serif" font-size="11" lengthAdjust="spacing" textLength="20.6519" x="1351.9947" y="177.2104">YES</text><text fill="#000000" font-family="sans-serif" font-size="11" lengthAdjust="spacing" textLength="90.8838" x="1302.5528" y="158.8081">FAX &#31471;&#26411;&#12391;&#12377;&#12363;&#65311;</text><text fill="#000000" font-family="sans-serif" font-size="11" lengthAdjust="spacing" textLength="16.8867" x="1273.6661" y="152.4058">NO</text><rect fill="#F1F1F1" height="33.9688" rx="12.5" ry="12.5" style="stroke:#181818;stroke-width:0.5;" width="38.6797" x="1328.6548" y="199.8047"/><text fill="#000000" font-family="sans-serif" font-size="12" lengthAdjust="spacing" textLength="18.6797" x="1338.6548" y="220.9434">fax</text><polygon fill="#F1F1F1" points="937.1705,287.7734,1113.1693,287.7734,1125.1693,299.7734,1113.1693,311.7734,937.1705,311.7734,925.1705,299.7734,937.1705,287.7734" style="stroke:#181818;stroke-width:0.5;"/><text fill="#000000" font-family="sans-serif" font-size="11" lengthAdjust="spacing" textLength="175.9988" x="937.1705" y="303.5815">&#20195;&#34920;&#30058;&#21495;&#12354;&#12427;&#12356;&#12399;&#36578;&#36865;&#30058;&#21495;&#12391;&#12377;&#12363;&#65311;</text><text fill="#000000" font-family="sans-serif" font-size="11" lengthAdjust="spacing" textLength="20.6519" x="904.5186" y="297.1792">YES</text><text fill="#000000" font-family="sans-serif" font-size="11" lengthAdjust="spacing" textLength="16.8867" x="1125.1693" y="297.1792">NO</text><polygon fill="#F1F1F1" points="598.2803,347.5781,774.2791,347.5781,786.2791,359.5781,774.2791,371.5781,598.2803,371.5781,586.2803,359.5781,598.2803,347.5781" style="stroke:#181818;stroke-width:0.5;"/><text fill="#000000" font-family="sans-serif" font-size="11" lengthAdjust="spacing" textLength="20.6519" x="690.2797" y="381.7886">YES</text><text fill="#000000" font-family="sans-serif" font-size="11" lengthAdjust="spacing" textLength="175.9988" x="598.2803" y="363.3862">&#23550;&#35441;&#30340;&#12395;&#36578;&#36865;&#20808;&#12434;&#36984;&#25246;&#12391;&#12365;&#12414;&#12377;&#12363;&#65311;</text><rect fill="#F1F1F1" height="33.9688" rx="12.5" ry="12.5" style="stroke:#181818;stroke-width:0.5;" width="93.1719" x="639.6937" y="404.3828"/><text fill="#000000" font-family="sans-serif" font-size="12" lengthAdjust="spacing" textLength="73.1719" x="649.6937" y="425.5215">switchboard</text><polygon fill="#F1F1F1" points="835.1658,346.7734,978.1648,346.7734,990.1648,359.5781,978.1648,372.3828,835.1658,372.3828,823.1658,359.5781,835.1658,346.7734" style="stroke:#181818;stroke-width:0.5;"/><text fill="#000000" font-family="sans-serif" font-size="11" lengthAdjust="spacing" textLength="20.6519" x="910.6653" y="382.5933">YES</text><text fill="#000000" font-family="sans-serif" font-size="11" lengthAdjust="spacing" textLength="98.9993" x="835.1658" y="356.9839">&#35079;&#25968;&#31471;&#26411;&#12398;&#21628;&#20986;&#12375;&#12420;</text><text fill="#000000" font-family="sans-serif" font-size="11" lengthAdjust="spacing" textLength="142.999" x="835.1658" y="369.7886">&#12461;&#12517;&#12540;&#12452;&#12531;&#12464;&#12364;&#12354;&#12426;&#12414;&#12377;&#12363;&#65311;</text><text fill="#000000" font-family="sans-serif" font-size="11" lengthAdjust="spacing" textLength="16.8867" x="806.2791" y="356.9839">NO</text><text fill="#000000" font-family="sans-serif" font-size="11" lengthAdjust="spacing" textLength="16.8867" x="990.1648" y="356.9839">NO</text><rect fill="#F1F1F1" height="33.9688" rx="12.5" ry="12.5" style="stroke:#181818;stroke-width:0.5;" width="49.9824" x="881.6741" y="405.1875"/><text fill="#000000" font-family="sans-serif" font-size="12" lengthAdjust="spacing" textLength="29.9824" x="891.6741" y="426.3262">main</text><rect fill="#F1F1F1" height="33.9688" rx="12.5" ry="12.5" style="stroke:#181818;stroke-width:0.5;" width="47.627" x="1010.1648" y="400.9805"/><text fill="#000000" font-family="sans-serif" font-size="12" lengthAdjust="spacing" textLength="27.627" x="1020.1648" y="422.1191">alias</text><polygon fill="#F1F1F1" points="1156.8042,321.7734,1299.8033,321.7734,1311.8033,333.7734,1299.8033,345.7734,1156.8042,345.7734,1144.8042,333.7734,1156.8042,321.7734" style="stroke:#181818;stroke-width:0.5;"/><text fill="#000000" font-family="sans-serif" font-size="11" lengthAdjust="spacing" textLength="142.999" x="1156.8042" y="337.5815">&#23550;&#35441;&#30340;&#12394;&#27231;&#33021;&#12434;&#26377;&#12375;&#12414;&#12377;&#12363;&#65311;</text><text fill="#000000" font-family="sans-serif" font-size="11" lengthAdjust="spacing" textLength="20.6519" x="1124.1524" y="331.1792">YES</text><text fill="#000000" font-family="sans-serif" font-size="11" lengthAdjust="spacing" textLength="16.8867" x="1311.8033" y="331.1792">NO</text><rect fill="#F1F1F1" height="33.9688" rx="12.5" ry="12.5" style="stroke:#181818;stroke-width:0.5;" width="86.1934" x="1087.7917" y="355.7734"/><text fill="#000000" font-family="sans-serif" font-size="12" lengthAdjust="spacing" textLength="66.1934" x="1097.7917" y="376.9121">application</text><polygon fill="#F1F1F1" points="1270.7195,355.7734,1380.7187,355.7734,1392.7187,368.5781,1380.7187,381.3828,1270.7195,381.3828,1258.7195,368.5781,1270.7195,355.7734" style="stroke:#181818;stroke-width:0.5;"/><text fill="#000000" font-family="sans-serif" font-size="11" lengthAdjust="spacing" textLength="109.9992" x="1270.7195" y="365.9839">&#38899;&#22768;&#12395;&#12424;&#12427;&#24773;&#22577;&#25552;&#20379;&#12434;</text><text fill="#000000" font-family="sans-serif" font-size="11" lengthAdjust="spacing" textLength="109.9992" x="1270.7195" y="378.7886">&#30446;&#30340;&#12392;&#12375;&#12390;&#12356;&#12414;&#12377;&#12363;&#65311;</text><text fill="#000000" font-family="sans-serif" font-size="11" lengthAdjust="spacing" textLength="20.6519" x="1238.0676" y="365.9839">YES</text><text fill="#000000" font-family="sans-serif" font-size="11" lengthAdjust="spacing" textLength="16.8867" x="1392.7187" y="365.9839">NO</text><rect fill="#F1F1F1" height="33.9688" rx="12.5" ry="12.5" style="stroke:#181818;stroke-width:0.5;" width="89.4688" x="1203.9851" y="391.3828"/><text fill="#000000" font-family="sans-serif" font-size="12" lengthAdjust="spacing" textLength="69.4688" x="1213.9851" y="412.5215">information</text><rect fill="#F1F1F1" height="33.9688" rx="12.5" ry="12.5" style="stroke:#181818;stroke-width:0.5;" width="55.4785" x="1374.9795" y="391.3828"/><text fill="#000000" font-family="sans-serif" font-size="12" lengthAdjust="spacing" textLength="35.4785" x="1384.9795" y="412.5215">music</text><line style="stroke:#181818;stroke-width:1;" x1="86.9996" x2="86.9996" y1="133.8047" y2="166.6094"/><polygon fill="#181818" points="82.9996,156.6094,86.9996,166.6094,90.9996,156.6094,86.9996,160.6094" style="stroke:#181818;stroke-width:1;"/><line style="stroke:#181818;stroke-width:1;" x1="269.8854" x2="269.8854" y1="134.6094" y2="167.4141"/><polygon fill="#181818" points="265.8854,157.4141,269.8854,167.4141,273.8854,157.4141,269.8854,161.4141" style="stroke:#181818;stroke-width:1;"/><line style="stroke:#181818;stroke-width:1;" x1="153.9992" x2="180.886" y1="121.8047" y2="121.8047"/><polygon fill="#181818" points="170.886,117.8047,180.886,121.8047,170.886,125.8047,174.886,121.8047" style="stroke:#181818;stroke-width:1;"/><line style="stroke:#181818;stroke-width:1;" x1="532.3068" x2="86.9996" y1="62" y2="62"/><line style="stroke:#181818;stroke-width:1;" x1="86.9996" x2="86.9996" y1="62" y2="109.8047"/><polygon fill="#181818" points="82.9996,99.8047,86.9996,109.8047,90.9996,99.8047,86.9996,103.8047" style="stroke:#181818;stroke-width:1;"/><line style="stroke:#181818;stroke-width:1;" x1="358.8849" x2="430.8852" y1="121.8047" y2="121.8047"/><line style="stroke:#181818;stroke-width:1;" x1="430.8852" x2="430.8852" y1="121.8047" y2="163.207"/><polygon fill="#181818" points="426.8852,153.207,430.8852,163.207,434.8852,153.207,430.8852,157.207" style="stroke:#181818;stroke-width:1;"/><line style="stroke:#181818;stroke-width:1;" x1="549.1287" x2="539.1287" y1="164" y2="164"/><line style="stroke:#181818;stroke-width:1;" x1="539.1287" x2="539.1287" y1="164" y2="186"/><polygon fill="#181818" points="535.1287,176,539.1287,186,543.1287,176,539.1287,180" style="stroke:#181818;stroke-width:1;"/><line style="stroke:#181818;stroke-width:1;" x1="650.1282" x2="660.1282" y1="164" y2="164"/><line style="stroke:#181818;stroke-width:1;" x1="660.1282" x2="660.1282" y1="164" y2="186"/><polygon fill="#181818" points="656.1282,176,660.1282,186,664.1282,176,660.1282,180" style="stroke:#181818;stroke-width:1;"/><line style="stroke:#181818;stroke-width:1;" x1="790.7284" x2="790.7284" y1="201" y2="233.8047"/><polygon fill="#181818" points="786.7284,223.8047,790.7284,233.8047,794.7284,223.8047,790.7284,227.8047" style="stroke:#181818;stroke-width:1;"/><line style="stroke:#181818;stroke-width:1;" x1="956.1144" x2="956.1144" y1="201" y2="233.8047"/><polygon fill="#181818" points="952.1144,223.8047,956.1144,233.8047,960.1144,223.8047,956.1144,227.8047" style="stroke:#181818;stroke-width:1;"/><line style="stroke:#181818;stroke-width:1;" x1="852.2281" x2="889.1148" y1="189" y2="189"/><polygon fill="#181818" points="879.1148,185,889.1148,189,879.1148,193,883.1148,189" style="stroke:#181818;stroke-width:1;"/><line style="stroke:#181818;stroke-width:1;" x1="813.2878" x2="914.9477" y1="130" y2="130"/><line style="stroke:#181818;stroke-width:1;" x1="914.9477" x2="914.9477" y1="130" y2="152"/><line style="stroke:#181818;stroke-width:1;" x1="914.9477" x2="790.7284" y1="152" y2="152"/><line style="stroke:#181818;stroke-width:1;" x1="790.7284" x2="790.7284" y1="152" y2="177"/><polygon fill="#181818" points="786.7284,167,790.7284,177,794.7284,167,790.7284,171" style="stroke:#181818;stroke-width:1;"/><line style="stroke:#181818;stroke-width:1;" x1="1023.114" x2="1071.8904" y1="189" y2="189"/><line style="stroke:#181818;stroke-width:1;" x1="1071.8904" x2="1071.8904" y1="189" y2="230.4023"/><polygon fill="#181818" points="1067.8904,220.4023,1071.8904,230.4023,1075.8904,220.4023,1071.8904,224.4023" style="stroke:#181818;stroke-width:1;"/><line style="stroke:#181818;stroke-width:1;" x1="701.2884" x2="599.6284" y1="130" y2="130"/><line style="stroke:#181818;stroke-width:1;" x1="599.6284" x2="599.6284" y1="130" y2="152"/><polygon fill="#181818" points="595.6284,142,599.6284,152,603.6284,142,599.6284,146" style="stroke:#181818;stroke-width:1;"/><line style="stroke:#181818;stroke-width:1;" x1="1192.1664" x2="1192.1664" y1="167" y2="199.8047"/><polygon fill="#181818" points="1188.1664,189.8047,1192.1664,199.8047,1196.1664,189.8047,1192.1664,193.8047" style="stroke:#181818;stroke-width:1;"/><line style="stroke:#181818;stroke-width:1;" x1="1347.9947" x2="1347.9947" y1="167" y2="199.8047"/><polygon fill="#181818" points="1343.9947,189.8047,1347.9947,199.8047,1351.9947,189.8047,1347.9947,193.8047" style="stroke:#181818;stroke-width:1;"/><line style="stroke:#181818;stroke-width:1;" x1="1253.6661" x2="1290.5528" y1="155" y2="155"/><polygon fill="#181818" points="1280.5528,151,1290.5528,155,1280.5528,159,1284.5528,155" style="stroke:#181818;stroke-width:1;"/><line style="stroke:#181818;stroke-width:1;" x1="1114.1693" x2="1192.1664" y1="96" y2="96"/><line style="stroke:#181818;stroke-width:1;" x1="1192.1664" x2="1192.1664" y1="96" y2="143"/><polygon fill="#181818" points="1188.1664,133,1192.1664,143,1196.1664,133,1192.1664,137" style="stroke:#181818;stroke-width:1;"/><line style="stroke:#181818;stroke-width:1;" x1="1405.4366" x2="1440.4366" y1="155" y2="155"/><line style="stroke:#181818;stroke-width:1;" x1="1440.4366" x2="1440.4366" y1="155" y2="272.7734"/><line style="stroke:#181818;stroke-width:1;" x1="1440.4366" x2="1025.1699" y1="272.7734" y2="272.7734"/><line style="stroke:#181818;stroke-width:1;" x1="1025.1699" x2="1025.1699" y1="272.7734" y2="287.7734"/><polygon fill="#181818" points="1021.1699,277.7734,1025.1699,287.7734,1029.1699,277.7734,1025.1699,281.7734" style="stroke:#181818;stroke-width:1;"/><line style="stroke:#181818;stroke-width:1;" x1="936.1704" x2="757.2881" y1="96" y2="96"/><line style="stroke:#181818;stroke-width:1;" x1="757.2881" x2="757.2881" y1="96" y2="118"/><polygon fill="#181818" points="753.2881,108,757.2881,118,761.2881,108,757.2881,112" style="stroke:#181818;stroke-width:1;"/><line style="stroke:#181818;stroke-width:1;" x1="686.2797" x2="686.2797" y1="371.5781" y2="404.3828"/><polygon fill="#181818" points="682.2797,394.3828,686.2797,404.3828,690.2797,394.3828,686.2797,398.3828" style="stroke:#181818;stroke-width:1;"/><line style="stroke:#181818;stroke-width:1;" x1="906.6653" x2="906.6653" y1="372.3828" y2="405.1875"/><polygon fill="#181818" points="902.6653,395.1875,906.6653,405.1875,910.6653,395.1875,906.6653,399.1875" style="stroke:#181818;stroke-width:1;"/><line style="stroke:#181818;stroke-width:1;" x1="786.2791" x2="823.1658" y1="359.5781" y2="359.5781"/><polygon fill="#181818" points="813.1658,355.5781,823.1658,359.5781,813.1658,363.5781,817.1658,359.5781" style="stroke:#181818;stroke-width:1;"/><line style="stroke:#181818;stroke-width:1;" x1="925.1705" x2="686.2797" y1="299.7734" y2="299.7734"/><line style="stroke:#181818;stroke-width:1;" x1="686.2797" x2="686.2797" y1="299.7734" y2="347.5781"/><polygon fill="#181818" points="682.2797,337.5781,686.2797,347.5781,690.2797,337.5781,686.2797,341.5781" style="stroke:#181818;stroke-width:1;"/><line style="stroke:#181818;stroke-width:1;" x1="990.1648" x2="1033.9783" y1="359.5781" y2="359.5781"/><line style="stroke:#181818;stroke-width:1;" x1="1033.9783" x2="1033.9783" y1="359.5781" y2="400.9805"/><polygon fill="#181818" points="1029.9783,390.9805,1033.9783,400.9805,1037.9783,390.9805,1033.9783,394.9805" style="stroke:#181818;stroke-width:1;"/><line style="stroke:#181818;stroke-width:1;" x1="1258.7195" x2="1248.7195" y1="368.5781" y2="368.5781"/><line style="stroke:#181818;stroke-width:1;" x1="1248.7195" x2="1248.7195" y1="368.5781" y2="391.3828"/><polygon fill="#181818" points="1244.7195,381.3828,1248.7195,391.3828,1252.7195,381.3828,1248.7195,385.3828" style="stroke:#181818;stroke-width:1;"/><line style="stroke:#181818;stroke-width:1;" x1="1392.7187" x2="1402.7187" y1="368.5781" y2="368.5781"/><line style="stroke:#181818;stroke-width:1;" x1="1402.7187" x2="1402.7187" y1="368.5781" y2="391.3828"/><polygon fill="#181818" points="1398.7187,381.3828,1402.7187,391.3828,1406.7187,381.3828,1402.7187,385.3828" style="stroke:#181818;stroke-width:1;"/><line style="stroke:#181818;stroke-width:1;" x1="1144.8042" x2="1130.8884" y1="333.7734" y2="333.7734"/><line style="stroke:#181818;stroke-width:1;" x1="1130.8884" x2="1130.8884" y1="333.7734" y2="355.7734"/><polygon fill="#181818" points="1126.8884,345.7734,1130.8884,355.7734,1134.8884,345.7734,1130.8884,349.7734" style="stroke:#181818;stroke-width:1;"/><line style="stroke:#181818;stroke-width:1;" x1="1311.8033" x2="1325.7191" y1="333.7734" y2="333.7734"/><line style="stroke:#181818;stroke-width:1;" x1="1325.7191" x2="1325.7191" y1="333.7734" y2="355.7734"/><polygon fill="#181818" points="1321.7191,345.7734,1325.7191,355.7734,1329.7191,345.7734,1325.7191,349.7734" style="stroke:#181818;stroke-width:1;"/><line style="stroke:#181818;stroke-width:1;" x1="1125.1693" x2="1228.3038" y1="299.7734" y2="299.7734"/><line style="stroke:#181818;stroke-width:1;" x1="1228.3038" x2="1228.3038" y1="299.7734" y2="321.7734"/><polygon fill="#181818" points="1224.3038,311.7734,1228.3038,321.7734,1232.3038,311.7734,1228.3038,315.7734" style="stroke:#181818;stroke-width:1;"/><line style="stroke:#181818;stroke-width:1;" x1="699.3058" x2="1025.1699" y1="62" y2="62"/><line style="stroke:#181818;stroke-width:1;" x1="1025.1699" x2="1025.1699" y1="62" y2="84"/><polygon fill="#181818" points="1021.1699,74,1025.1699,84,1029.1699,74,1025.1699,78" style="stroke:#181818;stroke-width:1;"/><line style="stroke:#181818;stroke-width:1;" x1="615.8063" x2="615.8063" y1="30" y2="50"/><polygon fill="#181818" points="611.8063,40,615.8063,50,619.8063,40,615.8063,44" style="stroke:#181818;stroke-width:1;"/><!--SRC=[bLJDSj9G5Dxp55cshz2kNEXI5svqffi8OSWO0aD0NNBlfGE5AgqpM5iw1Q5LIgRG3euYfFHX3hc45Q_WpGrfIS44Cvbm4yvtpdU-ywEbnLGw94U5ZOdUfQSwe2xzT37vTGAe0dWVq7T0EK0ZGCU0IZEZjYcaOv8gR3n_iHaI10wijCtoRmOS3mgJdpdQBm3wiMJ_-kbB6o08Mob9arBlfCWsVtqhAufziXqAag99jajwr02aZs_l09SvYpQWCdys0TKSfZig80ounFbrn_qiFSQJ4tPkcuKy_NBbJoAZPhJ75EpeRcBCP6OKhDPNozW3TCHZvsR6tYE46f6Z8GStzstJdrQ7rkKDe0uZ2nW1gWCwPA-kn3x4UFO70xFVTPtu63lcWFy0EGDI3R1bAMbnLkraBA5As_SVtLpiowi0XuGbHV53S0LMOJaraWLy3eJTkccKWmb6PD4lchT9YePT6N8A-0v8Rot_oOmM-x_yryjzVlBY7GKQGF90wclKdaMB9o9ItFN_4CkJzxCdhuJrl4N53yk-xhdEVssNus7J-jPo1_bXggnXOvf5xlU0jZMx8zQmV0Hr1sZk5W1_dg8-BPvn-CTLcsIHiVPUJeTZRn9YAXAWWdMUfvLhLuUEUMYO-O7T3pZ7DWE-0d81nE3TrmDy3MYV9rOCOX0NPNM5Q6vXtR-sH4KMDHzrbpfXGPuslQnPv9PfGq-TxUBFIKmc5JaifkM47xM5kPlMUcQJvQm3PXKeKR9hrcze-M0yghAWE-gask54MZpulrQyTtHaDPf8nJqa0eSddj7ayDh3uonJ-_aN]--></g></svg>