<svg xmlns="http://www.w3.org/2000/svg" xmlns:xlink="http://www.w3.org/1999/xlink" contentStyleType="text/css" data-diagram-type="ACTIVITY" height="484px" preserveAspectRatio="none" style="width:1697px;height:484px;background:#FFFFFF;" version="1.1" viewBox="0 0 1697 484" width="1697px" zoomAndPan="magnify"><defs/><g><ellipse cx="615.8063" cy="20" fill="#222222" rx="10" ry="10" style="stroke:#222222;stroke-width:1;"/><polygon fill="#F1F1F1" points="544.3068,50,687.3058,50,699.3058,62,687.3058,74,544.3068,74,532.3068,62,544.3068,50" style="stroke:#181818;stroke-width:0.5;"/><text fill="#000000" font-family="sans-serif" font-size="11" lengthAdjust="spacing" textLength="142.999" x="544.3068" y="65.8081">端末は接続されていますか？</text><text fill="#000000" font-family="sans-serif" font-size="11" lengthAdjust="spacing" textLength="16.8867" x="515.4201" y="59.4058">NO</text><text fill="#000000" font-family="sans-serif" font-size="11" lengthAdjust="spacing" textLength="20.6519" x="699.3058" y="59.4058">YES</text><polygon fill="#F1F1F1" points="32,109.8047,141.9992,109.8047,153.9992,121.8047,141.9992,133.8047,32,133.8047,20,121.8047,32,109.8047" style="stroke:#181818;stroke-width:0.5;"/><text fill="#000000" font-family="sans-serif" font-size="11" lengthAdjust="spacing" textLength="20.6519" x="90.9996" y="144.0151">YES</text><text fill="#000000" font-family="sans-serif" font-size="11" lengthAdjust="spacing" textLength="109.9992" x="32" y="125.6128">番号は予約済ですか？</text><rect fill="#F1F1F1" height="33.9688" rx="12.5" ry="12.5" style="stroke:#181818;stroke-width:0.5;" width="72.9863" x="50.5065" y="166.6094"/><text fill="#000000" font-family="sans-serif" font-size="12" lengthAdjust="spacing" textLength="52.9863" x="60.5065" y="187.748">reserved</text><polygon fill="#F1F1F1" points="192.886,109,346.8849,109,358.8849,121.8047,346.8849,134.6094,192.886,134.6094,180.886,121.8047,192.886,109" style="stroke:#181818;stroke-width:0.5;"/><text fill="#000000" font-family="sans-serif" font-size="11" lengthAdjust="spacing" textLength="20.6519" x="273.8854" y="144.8198">YES</text><text fill="#000000" font-family="sans-serif" font-size="11" lengthAdjust="spacing" textLength="131.9991" x="192.886" y="119.2104">既に使われなくなった端末</text><text fill="#000000" font-family="sans-serif" font-size="11" lengthAdjust="spacing" textLength="153.9989" x="192.886" y="132.0151">あるいは一時的な切断ですか？</text><text fill="#000000" font-family="sans-serif" font-size="11" lengthAdjust="spacing" textLength="16.8867" x="163.9992" y="119.2104">NO</text><text fill="#000000" font-family="sans-serif" font-size="11" lengthAdjust="spacing" textLength="16.8867" x="358.8849" y="119.2104">NO</text><rect fill="#F1F1F1" height="33.9688" rx="12.5" ry="12.5" style="stroke:#181818;stroke-width:0.5;" width="64.0684" x="237.8512" y="167.4141"/><text fill="#000000" font-family="sans-serif" font-size="12" lengthAdjust="spacing" textLength="44.0684" x="247.8512" y="188.5527">unused</text><rect fill="#F1F1F1" height="33.9688" rx="12.5" ry="12.5" style="stroke:#181818;stroke-width:0.5;" width="104.0006" x="378.8849" y="163.207"/><text fill="#000000" font-family="sans-serif" font-size="12" lengthAdjust="spacing" textLength="84.0006" x="388.8849" y="184.3457">（記載しない）</text><polygon fill="#F1F1F1" points="948.1704,84,1102.1693,84,1114.1693,96,1102.1693,108,948.1704,108,936.1704,96,948.1704,84" style="stroke:#181818;stroke-width:0.5;"/><text fill="#000000" font-family="sans-serif" font-size="11" lengthAdjust="spacing" textLength="153.9989" x="948.1704" y="99.8081">電話のためだけの端末ですか？</text><text fill="#000000" font-family="sans-serif" font-size="11" lengthAdjust="spacing" textLength="20.6519" x="915.5186" y="93.4058">YES</text><text fill="#000000" font-family="sans-serif" font-size="11" lengthAdjust="spacing" textLength="16.8867" x="1114.1693" y="93.4058">NO</text><polygon fill="#F1F1F1" points="713.2884,118,801.2878,118,813.2878,130,801.2878,142,713.2884,142,701.2884,130,713.2884,118" style="stroke:#181818;stroke-width:0.5;"/><text fill="#000000" font-family="sans-serif" font-size="11" lengthAdjust="spacing" textLength="87.9994" x="713.2884" y="133.8081">携帯電話ですか？</text><text fill="#000000" font-family="sans-serif" font-size="11" lengthAdjust="spacing" textLength="20.6519" x="680.6365" y="127.4058">YES</text><text fill="#000000" font-family="sans-serif" font-size="11" lengthAdjust="spacing" textLength="16.8867" x="813.2878" y="127.4058">NO</text><polygon fill="#F1F1F1" points="561.1287,152,638.1282,152,650.1282,164,638.1282,176,561.1287,176,549.1287,164,561.1287,152" style="stroke:#181818;stroke-width:0.5;"/><text fill="#000000" font-family="sans-serif" font-size="11" lengthAdjust="spacing" textLength="76.9995" x="561.1287" y="167.8081">スマホですか？</text><text fill="#000000" font-family="sans-serif" font-size="11" lengthAdjust="spacing" textLength="20.6519" x="528.4768" y="161.4058">YES</text><text fill="#000000" font-family="sans-serif" font-size="11" lengthAdjust="spacing" textLength="16.8867" x="650.1282" y="161.4058">NO</text><rect fill="#F1F1F1" height="33.9688" rx="12.5" ry="12.5" style="stroke:#181818;stroke-width:0.5;" width="92.4863" x="492.8855" y="186"/><text fill="#000000" font-family="sans-serif" font-size="12" lengthAdjust="spacing" textLength="72.4863" x="502.8855" y="207.1387">smartphone</text><rect fill="#F1F1F1" height="33.9688" rx="12.5" ry="12.5" style="stroke:#181818;stroke-width:0.5;" width="78.2012" x="621.0276" y="186"/><text fill="#000000" font-family="sans-serif" font-size="12" lengthAdjust="spacing" textLength="58.2012" x="631.0276" y="207.1387">cellphone</text><polygon fill="#F1F1F1" points="741.2287,177,840.2281,177,852.2281,189,840.2281,201,741.2287,201,729.2287,189,741.2287,177" style="stroke:#181818;stroke-width:0.5;"/><text fill="#000000" font-family="sans-serif" font-size="11" lengthAdjust="spacing" textLength="20.6519" x="794.7284" y="211.2104">YES</text><text fill="#000000" font-family="sans-serif" font-size="11" lengthAdjust="spacing" textLength="98.9993" x="741.2287" y="192.8081">ダイヤル式ですか？</text><rect fill="#F1F1F1" height="33.9688" rx="12.5" ry="12.5" style="stroke:#181818;stroke-width:0.5;" width="79.1914" x="751.1327" y="233.8047"/><text fill="#000000" font-family="sans-serif" font-size="12" lengthAdjust="spacing" textLength="59.1914" x="761.1327" y="254.9434">dialphone</text><polygon fill="#F1F1F1" points="901.1148,177,1011.114,177,1023.114,189,1011.114,201,901.1148,201,889.1148,189,901.1148,177" style="stroke:#181818;stroke-width:0.5;"/><text fill="#000000" font-family="sans-serif" font-size="11" lengthAdjust="spacing" textLength="20.6519" x="960.1144" y="211.2104">YES</text><text fill="#000000" font-family="sans-serif" font-size="11" lengthAdjust="spacing" textLength="109.9992" x="901.1148" y="192.8081">押しボタン式ですか？</text><text fill="#000000" font-family="sans-serif" font-size="11" lengthAdjust="spacing" textLength="16.8867" x="872.2281" y="186.4058">NO</text><text fill="#000000" font-family="sans-serif" font-size="11" lengthAdjust="spacing" textLength="16.8867" x="1023.114" y="186.4058">NO</text><rect fill="#F1F1F1" height="33.9688" rx="12.5" ry="12.5" style="stroke:#181818;stroke-width:0.5;" width="86.6328" x="912.798" y="233.8047"/><text fill="#000000" font-family="sans-serif" font-size="12" lengthAdjust="spacing" textLength="66.6328" x="922.798" y="254.9434">pushphone</text><rect fill="#F1F1F1" height="33.9688" rx="12.5" ry="12.5" style="stroke:#181818;stroke-width:0.5;" width="57.5527" x="1043.114" y="230.4023"/><text fill="#000000" font-family="sans-serif" font-size="12" lengthAdjust="spacing" textLength="37.5527" x="1053.114" y="251.541">phone</text><polygon fill="#F1F1F1" points="1142.6667,143,1241.6661,143,1253.6661,155,1241.6661,167,1142.6667,167,1130.6667,155,1142.6667,143" style="stroke:#181818;stroke-width:0.5;"/><text fill="#000000" font-family="sans-serif" font-size="11" lengthAdjust="spacing" textLength="20.6519" x="1196.1664" y="177.2104">YES</text><text fill="#000000" font-family="sans-serif" font-size="11" lengthAdjust="spacing" textLength="98.9993" x="1142.6667" y="158.8081">モデム端末ですか？</text><rect fill="#F1F1F1" height="33.9688" rx="12.5" ry="12.5" style="stroke:#181818;stroke-width:0.5;" width="65.7207" x="1159.3061" y="199.8047"/><text fill="#000000" font-family="sans-serif" font-size="12" lengthAdjust="spacing" textLength="45.7207" x="1169.3061" y="220.9434">modem</text><polygon fill="#F1F1F1" points="1302.5528,143,1393.4366,143,1405.4366,155,1393.4366,167,1302.5528,167,1290.5528,155,1302.5528,143" style="stroke:#181818;stroke-width:0.5;"/><text fill="#000000" font-family="sans-serif" font-size="11" lengthAdjust="spacing" textLength="20.6519" x="1351.9947" y="177.2104">YES</text><text fill="#000000" font-family="sans-serif" font-size="11" lengthAdjust="spacing" textLength="90.8838" x="1302.5528" y="158.8081">FAX 端末ですか？</text><text fill="#000000" font-family="sans-serif" font-size="11" lengthAdjust="spacing" textLength="16.8867" x="1273.6661" y="152.4058">NO</text><rect fill="#F1F1F1" height="33.9688" rx="12.5" ry="12.5" style="stroke:#181818;stroke-width:0.5;" width="38.6797" x="1328.6548" y="199.8047"/><text fill="#000000" font-family="sans-serif" font-size="12" lengthAdjust="spacing" textLength="18.6797" x="1338.6548" y="220.9434">fax</text><polygon fill="#F1F1F1" points="986.6701,287.7734,1063.6696,287.7734,1075.6696,299.7734,1063.6696,311.7734,986.6701,311.7734,974.6701,299.7734,986.6701,287.7734" style="stroke:#181818;stroke-width:0.5;"/><text fill="#000000" font-family="sans-serif" font-size="11" lengthAdjust="spacing" textLength="76.9995" x="986.6701" y="303.5815">会議室ですか？</text><text fill="#000000" font-family="sans-serif" font-size="11" lengthAdjust="spacing" textLength="20.6519" x="954.0183" y="297.1792">YES</text><text fill="#000000" font-family="sans-serif" font-size="11" lengthAdjust="spacing" textLength="16.8867" x="1075.6696" y="297.1792">NO</text><rect fill="#F1F1F1" height="33.9688" rx="12.5" ry="12.5" style="stroke:#181818;stroke-width:0.5;" width="87.0547" x="725.4341" y="321.7734"/><text fill="#000000" font-family="sans-serif" font-size="12" lengthAdjust="spacing" textLength="67.0547" x="735.4341" y="342.9121">conference</text><polygon fill="#F1F1F1" points="1193.379,321.7734,1369.3777,321.7734,1381.3777,333.7734,1369.3777,345.7734,1193.379,345.7734,1181.379,333.7734,1193.379,321.7734" style="stroke:#181818;stroke-width:0.5;"/><text fill="#000000" font-family="sans-serif" font-size="11" lengthAdjust="spacing" textLength="175.9988" x="1193.379" y="337.5815">代表番号あるいは転送番号ですか？</text><text fill="#000000" font-family="sans-serif" font-size="11" lengthAdjust="spacing" textLength="20.6519" x="1160.7271" y="331.1792">YES</text><text fill="#000000" font-family="sans-serif" font-size="11" lengthAdjust="spacing" textLength="16.8867" x="1381.3777" y="331.1792">NO</text><polygon fill="#F1F1F1" points="854.4888,381.5781,1030.4875,381.5781,1042.4875,393.5781,1030.4875,405.5781,854.4888,405.5781,842.4888,393.5781,854.4888,381.5781" style="stroke:#181818;stroke-width:0.5;"/><text fill="#000000" font-family="sans-serif" font-size="11" lengthAdjust="spacing" textLength="20.6519" x="946.4881" y="415.7886">YES</text><text fill="#000000" font-family="sans-serif" font-size="11" lengthAdjust="spacing" textLength="175.9988" x="854.4888" y="397.3862">対話的に転送先を選択できますか？</text><rect fill="#F1F1F1" height="33.9688" rx="12.5" ry="12.5" style="stroke:#181818;stroke-width:0.5;" width="93.1719" x="895.9022" y="438.3828"/><text fill="#000000" font-family="sans-serif" font-size="12" lengthAdjust="spacing" textLength="73.1719" x="905.9022" y="459.5215">switchboard</text><polygon fill="#F1F1F1" points="1091.3742,380.7734,1234.3733,380.7734,1246.3733,393.5781,1234.3733,406.3828,1091.3742,406.3828,1079.3742,393.5781,1091.3742,380.7734" style="stroke:#181818;stroke-width:0.5;"/><text fill="#000000" font-family="sans-serif" font-size="11" lengthAdjust="spacing" textLength="20.6519" x="1166.8738" y="416.5933">YES</text><text fill="#000000" font-family="sans-serif" font-size="11" lengthAdjust="spacing" textLength="98.9993" x="1091.3742" y="390.9839">複数端末の呼出しや</text><text fill="#000000" font-family="sans-serif" font-size="11" lengthAdjust="spacing" textLength="142.999" x="1091.3742" y="403.7886">キューイングがありますか？</text><text fill="#000000" font-family="sans-serif" font-size="11" lengthAdjust="spacing" textLength="16.8867" x="1062.4875" y="390.9839">NO</text><text fill="#000000" font-family="sans-serif" font-size="11" lengthAdjust="spacing" textLength="16.8867" x="1246.3733" y="390.9839">NO</text><rect fill="#F1F1F1" height="33.9688" rx="12.5" ry="12.5" style="stroke:#181818;stroke-width:0.5;" width="49.9824" x="1137.8825" y="439.1875"/><text fill="#000000" font-family="sans-serif" font-size="12" lengthAdjust="spacing" textLength="29.9824" x="1147.8825" y="460.3262">main</text><rect fill="#F1F1F1" height="33.9688" rx="12.5" ry="12.5" style="stroke:#181818;stroke-width:0.5;" width="47.627" x="1266.3733" y="434.9805"/><text fill="#000000" font-family="sans-serif" font-size="12" lengthAdjust="spacing" textLength="27.627" x="1276.3733" y="456.1191">alias</text><polygon fill="#F1F1F1" points="1413.0127,355.7734,1556.0117,355.7734,1568.0117,367.7734,1556.0117,379.7734,1413.0127,379.7734,1401.0127,367.7734,1413.0127,355.7734" style="stroke:#181818;stroke-width:0.5;"/><text fill="#000000" font-family="sans-serif" font-size="11" lengthAdjust="spacing" textLength="142.999" x="1413.0127" y="371.5815">対話的な機能を有しますか？</text><text fill="#000000" font-family="sans-serif" font-size="11" lengthAdjust="spacing" textLength="20.6519" x="1380.3609" y="365.1792">YES</text><text fill="#000000" font-family="sans-serif" font-size="11" lengthAdjust="spacing" textLength="16.8867" x="1568.0117" y="365.1792">NO</text><rect fill="#F1F1F1" height="33.9688" rx="12.5" ry="12.5" style="stroke:#181818;stroke-width:0.5;" width="86.1934" x="1344.0002" y="389.7734"/><text fill="#000000" font-family="sans-serif" font-size="12" lengthAdjust="spacing" textLength="66.1934" x="1354.0002" y="410.9121">application</text><polygon fill="#F1F1F1" points="1526.9279,389.7734,1636.9272,389.7734,1648.9272,402.5781,1636.9272,415.3828,1526.9279,415.3828,1514.9279,402.5781,1526.9279,389.7734" style="stroke:#181818;stroke-width:0.5;"/><text fill="#000000" font-family="sans-serif" font-size="11" lengthAdjust="spacing" textLength="109.9992" x="1526.9279" y="399.9839">音声による情報提供を</text><text fill="#000000" font-family="sans-serif" font-size="11" lengthAdjust="spacing" textLength="109.9992" x="1526.9279" y="412.7886">目的としていますか？</text><text fill="#000000" font-family="sans-serif" font-size="11" lengthAdjust="spacing" textLength="20.6519" x="1494.2761" y="399.9839">YES</text><text fill="#000000" font-family="sans-serif" font-size="11" lengthAdjust="spacing" textLength="16.8867" x="1648.9272" y="399.9839">NO</text><rect fill="#F1F1F1" height="33.9688" rx="12.5" ry="12.5" style="stroke:#181818;stroke-width:0.5;" width="89.4688" x="1460.1936" y="425.3828"/><text fill="#000000" font-family="sans-serif" font-size="12" lengthAdjust="spacing" textLength="69.4688" x="1470.1936" y="446.5215">information</text><rect fill="#F1F1F1" height="33.9688" rx="12.5" ry="12.5" style="stroke:#181818;stroke-width:0.5;" width="55.4785" x="1631.1879" y="425.3828"/><text fill="#000000" font-family="sans-serif" font-size="12" lengthAdjust="spacing" textLength="35.4785" x="1641.1879" y="446.5215">music</text><line style="stroke:#181818;stroke-width:1;" x1="86.9996" x2="86.9996" y1="133.8047" y2="166.6094"/><polygon fill="#181818" points="82.9996,156.6094,86.9996,166.6094,90.9996,156.6094,86.9996,160.6094" style="stroke:#181818;stroke-width:1;"/><line style="stroke:#181818;stroke-width:1;" x1="269.8854" x2="269.8854" y1="134.6094" y2="167.4141"/><polygon fill="#181818" points="265.8854,157.4141,269.8854,167.4141,273.8854,157.4141,269.8854,161.4141" style="stroke:#181818;stroke-width:1;"/><line style="stroke:#181818;stroke-width:1;" x1="153.9992" x2="180.886" y1="121.8047" y2="121.8047"/><polygon fill="#181818" points="170.886,117.8047,180.886,121.8047,170.886,125.8047,174.886,121.8047" style="stroke:#181818;stroke-width:1;"/><line style="stroke:#181818;stroke-width:1;" x1="532.3068" x2="86.9996" y1="62" y2="62"/><line style="stroke:#181818;stroke-width:1;" x1="86.9996" x2="86.9996" y1="62" y2="109.8047"/><polygon fill="#181818" points="82.9996,99.8047,86.9996,109.8047,90.9996,99.8047,86.9996,103.8047" style="stroke:#181818;stroke-width:1;"/><line style="stroke:#181818;stroke-width:1;" x1="358.8849" x2="430.8852" y1="121.8047" y2="121.8047"/><line style="stroke:#181818;stroke-width:1;" x1="430.8852" x2="430.8852" y1="121.8047" y2="163.207"/><polygon fill="#181818" points="426.8852,153.207,430.8852,163.207,434.8852,153.207,430.8852,157.207" style="stroke:#181818;stroke-width:1;"/><line style="stroke:#181818;stroke-width:1;" x1="549.1287" x2="539.1287" y1="164" y2="164"/><line style="stroke:#181818;stroke-width:1;" x1="539.1287" x2="539.1287" y1="164" y2="186"/><polygon fill="#181818" points="535.1287,176,539.1287,186,543.1287,176,539.1287,180" style="stroke:#181818;stroke-width:1;"/><line style="stroke:#181818;stroke-width:1;" x1="650.1282" x2="660.1282" y1="164" y2="164"/><line style="stroke:#181818;stroke-width:1;" x1="660.1282" x2="660.1282" y1="164" y2="186"/><polygon fill="#181818" points="656.1282,176,660.1282,186,664.1282,176,660.1282,180" style="stroke:#181818;stroke-width:1;"/><line style="stroke:#181818;stroke-width:1;" x1="790.7284" x2="790.7284" y1="201" y2="233.8047"/><polygon fill="#181818" points="786.7284,223.8047,790.7284,233.8047,794.7284,223.8047,790.7284,227.8047" style="stroke:#181818;stroke-width:1;"/><line style="stroke:#181818;stroke-width:1;" x1="956.1144" x2="956.1144" y1="201" y2="233.8047"/><polygon fill="#181818" points="952.1144,223.8047,956.1144,233.8047,960.1144,223.8047,956.1144,227.8047" style="stroke:#181818;stroke-width:1;"/><line style="stroke:#181818;stroke-width:1;" x1="852.2281" x2="889.1148" y1="189" y2="189"/><polygon fill="#181818" points="879.1148,185,889.1148,189,879.1148,193,883.1148,189" style="stroke:#181818;stroke-width:1;"/><line style="stroke:#181818;stroke-width:1;" x1="813.2878" x2="914.9477" y1="130" y2="130"/><line style="stroke:#181818;stroke-width:1;" x1="914.9477" x2="914.9477" y1="130" y2="152"/><line style="stroke:#181818;stroke-width:1;" x1="914.9477" x2="790.7284" y1="152" y2="152"/><line style="stroke:#181818;stroke-width:1;" x1="790.7284" x2="790.7284" y1="152" y2="177"/><polygon fill="#181818" points="786.7284,167,790.7284,177,794.7284,167,790.7284,171" style="stroke:#181818;stroke-width:1;"/><line style="stroke:#181818;stroke-width:1;" x1="1023.114" x2="1071.8904" y1="189" y2="189"/><line style="stroke:#181818;stroke-width:1;" x1="1071.8904" x2="1071.8904" y1="189" y2="230.4023"/><polygon fill="#181818" points="1067.8904,220.4023,1071.8904,230.4023,1075.8904,220.4023,1071.8904,224.4023" style="stroke:#181818;stroke-width:1;"/><line style="stroke:#181818;stroke-width:1;" x1="701.2884" x2="599.6284" y1="130" y2="130"/><line style="stroke:#181818;stroke-width:1;" x1="599.6284" x2="599.6284" y1="130" y2="152"/><polygon fill="#181818" points="595.6284,142,599.6284,152,603.6284,142,599.6284,146" style="stroke:#181818;stroke-width:1;"/><line style="stroke:#181818;stroke-width:1;" x1="1192.1664" x2="1192.1664" y1="167" y2="199.8047"/><polygon fill="#181818" points="1188.1664,189.8047,1192.1664,199.8047,1196.1664,189.8047,1192.1664,193.8047" style="stroke:#181818;stroke-width:1;"/><line style="stroke:#181818;stroke-width:1;" x1="1347.9947" x2="1347.9947" y1="167" y2="199.8047"/><polygon fill="#181818" points="1343.9947,189.8047,1347.9947,199.8047,1351.9947,189.8047,1347.9947,193.8047" style="stroke:#181818;stroke-width:1;"/><line style="stroke:#181818;stroke-width:1;" x1="1253.6661" x2="1290.5528" y1="155" y2="155"/><polygon fill="#181818" points="1280.5528,151,1290.5528,155,1280.5528,159,1284.5528,155" style="stroke:#181818;stroke-width:1;"/><line style="stroke:#181818;stroke-width:1;" x1="1114.1693" x2="1192.1664" y1="96" y2="96"/><line style="stroke:#181818;stroke-width:1;" x1="1192.1664" x2="1192.1664" y1="96" y2="143"/><polygon fill="#181818" points="1188.1664,133,1192.1664,143,1196.1664,133,1192.1664,137" style="stroke:#181818;stroke-width:1;"/><line style="stroke:#181818;stroke-width:1;" x1="1405.4366" x2="1440.4366" y1="155" y2="155"/><line style="stroke:#181818;stroke-width:1;" x1="1440.4366" x2="1440.4366" y1="155" y2="272.7734"/><line style="stroke:#181818;stroke-width:1;" x1="1440.4366" x2="1025.1699" y1="272.7734" y2="272.7734"/><line style="stroke:#181818;stroke-width:1;" x1="1025.1699" x2="1025.1699" y1="272.7734" y2="287.7734"/><polygon fill="#181818" points="1021.1699,277.7734,1025.1699,287.7734,1029.1699,277.7734,1025.1699,281.7734" style="stroke:#181818;stroke-width:1;"/><line style="stroke:#181818;stroke-width:1;" x1="936.1704" x2="757.2881" y1="96" y2="96"/><line style="stroke:#181818;stroke-width:1;" x1="757.2881" x2="757.2881" y1="96" y2="118"/><polygon fill="#181818" points="753.2881,108,757.2881,118,761.2881,108,757.2881,112" style="stroke:#181818;stroke-width:1;"/><line style="stroke:#181818;stroke-width:1;" x1="942.4881" x2="942.4881" y1="405.5781" y2="438.3828"/><polygon fill="#181818" points="938.4881,428.3828,942.4881,438.3828,946.4881,428.3828,942.4881,432.3828" style="stroke:#181818;stroke-width:1;"/><line style="stroke:#181818;stroke-width:1;" x1="1162.8738" x2="1162.8738" y1="406.3828" y2="439.1875"/><polygon fill="#181818" points="1158.8738,429.1875,1162.8738,439.1875,1166.8738,429.1875,1162.8738,433.1875" style="stroke:#181818;stroke-width:1;"/><line style="stroke:#181818;stroke-width:1;" x1="1042.4875" x2="1079.3742" y1="393.5781" y2="393.5781"/><polygon fill="#181818" points="1069.3742,389.5781,1079.3742,393.5781,1069.3742,397.5781,1073.3742,393.5781" style="stroke:#181818;stroke-width:1;"/><line style="stroke:#181818;stroke-width:1;" x1="1181.379" x2="942.4881" y1="333.7734" y2="333.7734"/><line style="stroke:#181818;stroke-width:1;" x1="942.4881" x2="942.4881" y1="333.7734" y2="381.5781"/><polygon fill="#181818" points="938.4881,371.5781,942.4881,381.5781,946.4881,371.5781,942.4881,375.5781" style="stroke:#181818;stroke-width:1;"/><line style="stroke:#181818;stroke-width:1;" x1="1246.3733" x2="1290.1867" y1="393.5781" y2="393.5781"/><line style="stroke:#181818;stroke-width:1;" x1="1290.1867" x2="1290.1867" y1="393.5781" y2="434.9805"/><polygon fill="#181818" points="1286.1867,424.9805,1290.1867,434.9805,1294.1867,424.9805,1290.1867,428.9805" style="stroke:#181818;stroke-width:1;"/><line style="stroke:#181818;stroke-width:1;" x1="1514.9279" x2="1504.9279" y1="402.5781" y2="402.5781"/><line style="stroke:#181818;stroke-width:1;" x1="1504.9279" x2="1504.9279" y1="402.5781" y2="425.3828"/><polygon fill="#181818" points="1500.9279,415.3828,1504.9279,425.3828,1508.9279,415.3828,1504.9279,419.3828" style="stroke:#181818;stroke-width:1;"/><line style="stroke:#181818;stroke-width:1;" x1="1648.9272" x2="1658.9272" y1="402.5781" y2="402.5781"/><line style="stroke:#181818;stroke-width:1;" x1="1658.9272" x2="1658.9272" y1="402.5781" y2="425.3828"/><polygon fill="#181818" points="1654.9272,415.3828,1658.9272,425.3828,1662.9272,415.3828,1658.9272,419.3828" style="stroke:#181818;stroke-width:1;"/><line style="stroke:#181818;stroke-width:1;" x1="1401.0127" x2="1387.0969" y1="367.7734" y2="367.7734"/><line style="stroke:#181818;stroke-width:1;" x1="1387.0969" x2="1387.0969" y1="367.7734" y2="389.7734"/><polygon fill="#181818" points="1383.0969,379.7734,1387.0969,389.7734,1391.0969,379.7734,1387.0969,383.7734" style="stroke:#181818;stroke-width:1;"/><line style="stroke:#181818;stroke-width:1;" x1="1568.0117" x2="1581.9276" y1="367.7734" y2="367.7734"/><line style="stroke:#181818;stroke-width:1;" x1="1581.9276" x2="1581.9276" y1="367.7734" y2="389.7734"/><polygon fill="#181818" points="1577.9276,379.7734,1581.9276,389.7734,1585.9276,379.7734,1581.9276,383.7734" style="stroke:#181818;stroke-width:1;"/><line style="stroke:#181818;stroke-width:1;" x1="1381.3777" x2="1484.5122" y1="333.7734" y2="333.7734"/><line style="stroke:#181818;stroke-width:1;" x1="1484.5122" x2="1484.5122" y1="333.7734" y2="355.7734"/><polygon fill="#181818" points="1480.5122,345.7734,1484.5122,355.7734,1488.5122,345.7734,1484.5122,349.7734" style="stroke:#181818;stroke-width:1;"/><line style="stroke:#181818;stroke-width:1;" x1="974.6701" x2="768.9614" y1="299.7734" y2="299.7734"/><line style="stroke:#181818;stroke-width:1;" x1="768.9614" x2="768.9614" y1="299.7734" y2="321.7734"/><polygon fill="#181818" points="764.9614,311.7734,768.9614,321.7734,772.9614,311.7734,768.9614,315.7734" style="stroke:#181818;stroke-width:1;"/><line style="stroke:#181818;stroke-width:1;" x1="1075.6696" x2="1281.3784" y1="299.7734" y2="299.7734"/><line style="stroke:#181818;stroke-width:1;" x1="1281.3784" x2="1281.3784" y1="299.7734" y2="321.7734"/><polygon fill="#181818" points="1277.3784,311.7734,1281.3784,321.7734,1285.3784,311.7734,1281.3784,315.7734" style="stroke:#181818;stroke-width:1;"/><line style="stroke:#181818;stroke-width:1;" x1="699.3058" x2="1025.1699" y1="62" y2="62"/><line style="stroke:#181818;stroke-width:1;" x1="1025.1699" x2="1025.1699" y1="62" y2="84"/><polygon fill="#181818" points="1021.1699,74,1025.1699,84,1029.1699,74,1025.1699,78" style="stroke:#181818;stroke-width:1;"/><line style="stroke:#181818;stroke-width:1;" x1="615.8063" x2="615.8063" y1="30" y2="50"/><polygon fill="#181818" points="611.8063,40,615.8063,50,619.8063,40,615.8063,44" style="stroke:#181818;stroke-width:1;"/><!--SRC=[bLNDRjf04Bxp53uchv2SUcYFxQ6NLih5XKLODGRPqFR8heaWa9Qa4aq3A10WBG7n4r6r51poC8EDEV4ANQzn0e7O526pjkUR-UQR7vGOByTyGf3RcRQwHga5k6jykPh-BW3E0pa6_0Dm4l0Oy3dWx5mhxtAn49AudPUlTdqSnu3vffxxGu6JONhwAsaCqe1_hjc_VVxQ0d3SdemK97z0WNrs-ruGHUjaEUIGg23BfN5M1ToQtDu1oJ4MJS0vTgq1BjjC3oJ014YMyUjE1WdZd4mBzDpKqodZMzkTH5oAAuyfMD6TnAZ9N4kRZU-cTWJuZCLEphMZHmWf80HzDcxXsw8_AuxCwnl07KeM20PS0NnARns9NOYnx4-6-g3hE74njis1_0Nr0jIYXorDIGdJQaT34GdjtpzqSh4-gmemY1-9eXk2AR09owYf2I1rKEctfMivRu81WNUBjjea6SsgZ5e2SWTgVol_qRWI-h_yjyjzSLh5smfKGKs1MjcYzZHQE190OSV_GwoLl5yyUyDjvot8VrhtTSzryMkvd6W5iztJEtNteV57f22IaUH7JmyESpUgcPSDPoyy3AavgiuIs7dkCGLwTqpxdqrqomRgXsaWNsTuO6Gk6FppfiMqB83oKOZvG-yYl1pm4DMifunypv6revzgUcfejHT9qaL3sg1UWQgnPku3wG4-Pebbl1Y4UK7QK0D7CEVL7YyAlE9IhBN6MfAdQLoNJVMMQcEKx6NbpecFHaN1pyU4Y1krfJ6UbVjwZURS0a8ha3NKGxroO-HE9kCY3NeWJOiTHgJ1WZ_rZx4wYO8KZCZX5HAUinYEAu9_wrcqTxDr_GS0]--></g></svg>